<?xml version="1.0" ?><svg style="enable-background:new 0 0 64 64;" version="1.1" viewBox="0 0 64 64" xml:space="preserve" xmlns="http://www.w3.org/2000/svg" xmlns:xlink="http://www.w3.org/1999/xlink"><g id="Layer_2"/><g id="Layer_3"/><g id="Layer_4"/><g id="Layer_5"/><g id="Layer_6"/><g id="Layer_7"/><g id="Layer_8"/><g id="Layer_9"/><g id="Layer_10"/><g id="Layer_11"/><g id="Layer_12"/><g id="Layer_13"/><g id="Layer_15"/><g id="Layer_16"/><g id="Layer_17"/><g id="Layer_18"/><g id="Layer_19"/><g id="Layer_20"/><g id="Layer_21"/><g id="Layer_22"/><g id="Layer_23"/><g id="Layer_24"><g><path d="M62.9,17.7h-16l-1.6-7.2C44.9,9,43.6,7.9,42,7.9H22c-1.6,0-2.9,1.1-3.2,2.6l-1.6,7.2h-3v-2.3c0-1.2-1-2.2-2.2-2.2H7.1    c-1.2,0-2.2,1-2.2,2.2v2.3H1.1c-0.6,0-1.1,0.5-1.1,1.1v34c0,1.8,1.5,3.3,3.3,3.3h57.4c1.8,0,3.3-1.5,3.3-3.3v-34    C64,18.1,63.5,17.7,62.9,17.7z M20.9,11c0.1-0.5,0.6-0.9,1.1-0.9h20c0.5,0,1,0.4,1.1,0.9l1.5,6.7H19.4L20.9,11z M7.1,15.4H12v2.3    H7.1V15.4z M6,19.9h7.1h5h28h15.8v8.7h-21c-2.4-2.1-5.4-3.3-8.8-3.3s-6.4,1.3-8.8,3.3h-21v-8.7H6z M32,27.4    c6.2,0,11.2,5,11.2,11.2s-5,11.2-11.2,11.2s-11.2-5-11.2-11.2S25.8,27.4,32,27.4z M60.7,53.9H3.3c-0.6,0-1.1-0.5-1.1-1.1v-22h19    c-1.6,2.2-2.6,4.9-2.6,7.9c0,7.4,6,13.4,13.4,13.4s13.4-6,13.4-13.4c0-3-1-5.7-2.6-7.9h19v22C61.8,53.4,61.3,53.9,60.7,53.9z"/><path d="M51.4,27.2h4.7c1.2,0,2.2-1,2.2-2.2v-1.3c0-1.2-1-2.2-2.2-2.2h-4.7c-1.2,0-2.2,1-2.2,2.2V25    C49.2,26.2,50.2,27.2,51.4,27.2z M51.4,23.7h4.7l0,1.3h-4.7V23.7z"/></g></g><g id="Layer_25"/><g id="Layer_26"/><g id="Layer_27"/></svg>