<?xml version="1.0" ?><svg id="Layer_1_1_" style="enable-background:new 0 0 128 128;" version="1.1" viewBox="0 0 128 128" xml:space="preserve" xmlns="http://www.w3.org/2000/svg" xmlns:xlink="http://www.w3.org/1999/xlink"><g><path d="M86,61h-6v3h-3v6h3v3h6v-3h3v-6h-3V61z M87,66v2h-3v3h-2v-3h-3v-2h3v-3h2v3H87z"/><path d="M99,67c0-6.617-5.383-12-12-12c-0.679,0-1.359,0.063-2.025,0.177C84.331,55.07,83.674,55,83,55c-6.617,0-12,5.383-12,12   s5.383,12,12,12c0.674,0,1.33-0.069,1.974-0.177C85.639,78.937,86.319,79,87,79C93.617,79,99,73.617,99,67z M73,67   c0-5.514,4.486-10,10-10s10,4.486,10,10s-4.486,10-10,10S73,72.514,73,67z M95,67c0-3.783-1.764-7.157-4.508-9.358   C94.287,59.063,97,62.716,97,67s-2.713,7.937-6.508,9.358C93.236,74.157,95,70.783,95,67z"/><path d="M96,50c0.674,0,1.33-0.069,1.974-0.177C98.639,49.937,99.319,50,100,50c6.617,0,12-5.383,12-12s-5.383-12-12-12   c-0.679,0-1.359,0.063-2.025,0.177C97.331,26.07,96.674,26,96,26c-6.617,0-12,5.383-12,12S89.383,50,96,50z M110,38   c0,4.284-2.713,7.937-6.508,9.358C106.236,45.157,108,41.783,108,38s-1.764-7.157-4.508-9.358C107.287,30.063,110,33.716,110,38z    M96,28c5.514,0,10,4.486,10,10s-4.486,10-10,10s-10-4.486-10-10S90.486,28,96,28z"/><path d="M41,59c-4.411,0-8,3.589-8,8h2c0-3.309,2.691-6,6-6V59z"/><path d="M41,63c-2.206,0-4,1.794-4,4s1.794,4,4,4s4-1.794,4-4S43.206,63,41,63z M41,69c-1.103,0-2-0.897-2-2s0.897-2,2-2   s2,0.897,2,2S42.103,69,41,69z"/><path d="M96,45c3.86,0,7-3.14,7-7s-3.14-7-7-7s-7,3.14-7,7S92.14,45,96,45z M96,33c2.757,0,5,2.243,5,5s-2.243,5-5,5s-5-2.243-5-5   S93.243,33,96,33z"/><path d="M45,55c-0.679,0-1.359,0.063-2.025,0.177C42.331,55.07,41.674,55,41,55c-6.617,0-12,5.383-12,12s5.383,12,12,12   c0.674,0,1.33-0.069,1.974-0.177C43.639,78.937,44.319,79,45,79c6.617,0,12-5.383,12-12S51.617,55,45,55z M31,67   c0-5.514,4.486-10,10-10s10,4.486,10,10s-4.486,10-10,10S31,72.514,31,67z M48.492,76.358C51.236,74.157,53,70.783,53,67   s-1.764-7.157-4.508-9.358C52.287,59.063,55,62.716,55,67S52.287,74.937,48.492,76.358z"/><path d="M64,35c2.757,0,5-2.243,5-5s-2.243-5-5-5s-5,2.243-5,5S61.243,35,64,35z M64,27c1.654,0,3,1.346,3,3s-1.346,3-3,3   s-3-1.346-3-3S62.346,27,64,27z"/><path d="M78,48c0-1.654-1.346-3-3-3h-6c-1.654,0-3,1.346-3,3s1.346,3,3,3h6C76.654,51,78,49.654,78,48z M68,48c0-0.551,0.449-1,1-1   h6c0.551,0,1,0.449,1,1s-0.449,1-1,1h-6C68.449,49,68,48.551,68,48z"/><path d="M59,45h-6c-1.654,0-3,1.346-3,3s1.346,3,3,3h6c1.654,0,3-1.346,3-3S60.654,45,59,45z M59,49h-6c-0.551,0-1-0.449-1-1   s0.449-1,1-1h6c0.551,0,1,0.449,1,1S59.551,49,59,49z"/><path d="M26,37c2.206,0,4-1.794,4-4s-1.794-4-4-4s-4,1.794-4,4S23.794,37,26,37z M26,31c1.103,0,2,0.897,2,2s-0.897,2-2,2   s-2-0.897-2-2S24.897,31,26,31z"/><path d="M34,45c2.206,0,4-1.794,4-4s-1.794-4-4-4s-4,1.794-4,4S31.794,45,34,45z M34,39c1.103,0,2,0.897,2,2s-0.897,2-2,2   s-2-0.897-2-2S32.897,39,34,39z"/><path d="M26,45c-2.206,0-4,1.794-4,4s1.794,4,4,4s4-1.794,4-4S28.206,45,26,45z M26,51c-1.103,0-2-0.897-2-2s0.897-2,2-2   s2,0.897,2,2S27.103,51,26,51z"/><path d="M18,37c-2.206,0-4,1.794-4,4s1.794,4,4,4s4-1.794,4-4S20.206,37,18,37z M18,43c-1.103,0-2-0.897-2-2s0.897-2,2-2   s2,0.897,2,2S19.103,43,18,43z"/><path d="M126.308,44.138l-7.333-17.6c-1.246-2.991-3.964-5.031-7.112-5.449l-0.318-1.911c-0.403-2.42-2.478-4.178-4.932-4.178   H89.389c-2.455,0-4.529,1.757-4.932,4.178L84.153,21H43.847l-0.304-1.822C43.14,16.757,41.066,15,38.611,15H21.389   c-2.455,0-4.529,1.757-4.932,4.178l-0.318,1.911c-3.148,0.418-5.866,2.458-7.112,5.449l-7.333,17.6C1.233,45.241,1,46.405,1,47.6   v25.973c0,1.065,0.187,2.111,0.555,3.111l11.616,31.528c1.275,3.462,4.611,5.788,8.3,5.788c3.729,0,7.077-2.359,8.331-5.871   l6.28-17.586C37.052,87.826,39.644,86,42.529,86H43h42.471c2.886,0,5.477,1.826,6.447,4.543l6.28,17.586   c1.254,3.511,4.602,5.871,8.331,5.871c3.689,0,7.025-2.326,8.3-5.788l11.616-31.528c0.368-1,0.555-2.046,0.555-3.111V47.6   C127,46.405,126.767,45.241,126.308,44.138z M86.429,19.507C86.671,18.054,87.916,17,89.389,17h17.223   c1.473,0,2.717,1.054,2.959,2.507L109.82,21H86.18L86.429,19.507z M79.64,23l-4.375,14H52.735L48.36,23H79.64z M21.389,17h17.223   c1.473,0,2.717,1.054,2.959,2.507L41.82,21H18.18l0.249-1.493C18.671,18.054,19.916,17,21.389,17z M34.198,89.871l-6.28,17.586   c-0.97,2.718-3.562,4.543-6.447,4.543c-2.855,0-5.437-1.8-6.423-4.479L3.432,75.993c-0.067-0.183-0.1-0.374-0.152-0.56l1.902-1.057   c1.563-0.868,3.061-1.88,4.449-3.008L8.37,69.815c-1.298,1.055-2.697,2-4.159,2.812L3,73.3V47.6c0-0.929,0.181-1.835,0.538-2.692   l6.813-16.35l3.213,32.129c0.079,0.788,0.231,1.561,0.449,2.313H14c0,7.02,0.357,14.119,1.06,21.1l1.99-0.2   c-0.559-5.551-0.887-11.176-0.998-16.776c0.438,0.592,0.924,1.15,1.461,1.664l16.341,15.63c-2.584,0.824-4.712,2.812-5.656,5.453   l-4.907,13.74l1.884,0.673l4.907-13.74C31.052,87.826,33.644,86,36.529,86h0.444C35.74,86.999,34.755,88.312,34.198,89.871z M43,84   h-0.471h-6c-0.068,0-0.134,0.014-0.202,0.016L18.896,67.343c-1.894-1.812-3.081-4.247-3.342-6.855l-3.506-35.066   C13.352,23.912,15.26,23,17.333,23h28.931l5,16h25.471l5-16h28.931c2.074,0,3.981,0.912,5.286,2.422l-3.506,35.066   c-0.261,2.608-1.448,5.043-3.342,6.855L90.215,85.41C88.824,84.522,87.194,84,85.471,84H43z M112.953,107.521   c-0.987,2.679-3.568,4.479-6.423,4.479c-2.886,0-5.477-1.826-6.447-4.543l-6.28-17.586c-0.438-1.226-1.143-2.299-2.018-3.193   l18.703-17.89c0.538-0.515,1.025-1.075,1.464-1.668c-0.105,5.267-0.401,10.559-0.903,15.784l1.991,0.19   C113.677,76.442,114,69.681,114,63h-0.012c0.217-0.752,0.37-1.525,0.449-2.313l3.213-32.129l6.813,16.35   C124.819,45.765,125,46.671,125,47.6v25.701l-1.211-0.673c-1.832-1.018-3.556-2.24-5.125-3.633l-1.328,1.495   c1.678,1.49,3.523,2.797,5.482,3.886l1.903,1.057c-0.052,0.187-0.085,0.377-0.152,0.56L112.953,107.521z"/><rect height="2" transform="matrix(0.3364 -0.9417 0.9417 0.3364 -85.2638 92.7634)" width="1.942" x="22.215" y="105.878"/><path d="M15.272,86.11c0.406,3.677,0.917,7.396,1.518,11.052l1.974-0.324c-0.596-3.623-1.102-7.306-1.503-10.948L15.272,86.11z"/><path d="M107.035,108.235l1.952,0.434c1.722-7.749,3.017-15.677,3.85-23.564l-1.989-0.21   C110.022,92.708,108.74,100.56,107.035,108.235z"/></g></svg>