<?xml version="1.0" ?><svg style="enable-background:new 0 0 64 64;" version="1.1" viewBox="0 0 64 64" xml:space="preserve" xmlns="http://www.w3.org/2000/svg" xmlns:xlink="http://www.w3.org/1999/xlink"><g id="cctv"/><g id="smartlamp"/><g id="headphone"><path d="M32,3C16,3,3,16,3,32v20c0,1.7,1.3,3,3,3h1c1.3,0,2.4-0.8,2.8-2h2.3c0.5,3.4,3.4,6,6.9,6h1.2c0.4,1.2,1.5,2,2.8,2   c1.7,0,3-1.3,3-3V40c0-1.7-1.3-3-3-3c-1.3,0-2.4,0.8-2.8,2H19c-3.5,0-6.4,2.6-6.9,6H10V32c0-12.1,9.9-22,22-22s22,9.9,22,22v13   h-2.1c-0.5-3.4-3.4-6-6.9-6h-1.2c-0.4-1.2-1.5-2-2.8-2c-1.7,0-3,1.3-3,3v18c0,1.7,1.3,3,3,3c1.3,0,2.4-0.8,2.8-2H45   c3.5,0,6.4-2.6,6.9-6h2.3c0.4,1.2,1.5,2,2.8,2h1c1.7,0,3-1.3,3-3V32C61,16,48,3,32,3z M23,39c0.6,0,1,0.4,1,1v18c0,0.6-0.4,1-1,1   s-1-0.4-1-1V40C22,39.4,22.4,39,23,39z M19,41h1v16h-1c-2.8,0-5-2.2-5-5v-6C14,43.2,16.2,41,19,41z M12,47v4h-2v-4H12z M41,59   c-0.6,0-1-0.4-1-1V40c0-0.6,0.4-1,1-1s1,0.4,1,1v18C42,58.6,41.6,59,41,59z M45,57h-1V41h1c2.8,0,5,2.2,5,5v6   C50,54.8,47.8,57,45,57z M52,47h2v4h-2V47z M59,52c0,0.6-0.4,1-1,1h-1c-0.6,0-1-0.4-1-1v-6V32C56,18.8,45.2,8,32,8S8,18.8,8,32v14   v6c0,0.6-0.4,1-1,1H6c-0.6,0-1-0.4-1-1V32C5,17.1,17.1,5,32,5s27,12.1,27,27V52z"/></g><g id="headset"/><g id="mouse"/><g id="wireless_chip"/><g id="gamepad"/><g id="wireless_charge"/><g id="camera"/><g id="printer"/><g id="laptop"/><g id="smartphone"/><g id="smartwatch"/><g id="speaker"/><g id="drone"/><g id="smart_plug"/><g id="router"/><g id="smart_lock"/><g id="air_conditioner"/><g id="smartglasses"/></svg>