<?xml version="1.0" ?><!DOCTYPE svg  PUBLIC '-//W3C//DTD SVG 1.1//EN'  'http://www.w3.org/Graphics/SVG/1.1/DTD/svg11.dtd'><svg enable-background="new 0 0 62.166 50.666" height="50.666px" id="Layer_1" version="1.1" viewBox="0 0 62.166 50.666" width="62.166px" xml:space="preserve" xmlns="http://www.w3.org/2000/svg" xmlns:xlink="http://www.w3.org/1999/xlink"><path d="M60.666,0H1.5C0.671,0,0,0.671,0,1.5v39.666c0,0.828,0.671,1.5,1.5,1.5h28.083v5H17.416c-0.829,0-1.5,0.672-1.5,1.5  s0.671,1.5,1.5,1.5H44.75c0.828,0,1.5-0.672,1.5-1.5s-0.672-1.5-1.5-1.5H32.583v-5h28.083c0.828,0,1.5-0.672,1.5-1.5V1.5  C62.166,0.671,61.494,0,60.666,0z M59.166,39.666H3V3h56.166V39.666z"/><path d="M28,36.5h6.166c0.828,0,1.5-0.672,1.5-1.5s-0.672-1.5-1.5-1.5H28c-0.829,0-1.5,0.672-1.5,1.5S27.171,36.5,28,36.5z"/></svg>