<?xml version="1.0" encoding="UTF-8"?>
<svg width="149px" height="66px" viewBox="0 0 149 66" version="1.1" xmlns="http://www.w3.org/2000/svg" xmlns:xlink="http://www.w3.org/1999/xlink">
    <!-- Generator: Sketch 52.2 (67145) - http://www.bohemiancoding.com/sketch -->
    <title>Group</title>
    <desc>Created with Sketch.</desc>
    <defs>
        <ellipse id="path-1" cx="11.878277" cy="11.6158666" rx="11.8737101" ry="11.6114006"></ellipse>
    </defs>
    <g id="Page-1" stroke="none" stroke-width="1" fill="none" fill-rule="evenodd">
        <g id="GADGETS_GUIDE_DESKTOP-Copy" transform="translate(-155.000000, -71.000000)">
            <g id="Header" transform="translate(155.000000, 71.000000)">
                <g id="Group">
                    <path d="M16.9102642,66 C14.89057,66 12.962709,65.7992084 11.1266234,65.397619 L12.0079401,57.2928571 C13.4400869,57.5119059 14.7620487,57.6214286 15.9738652,57.6214286 C18.2506114,57.6214286 19.976506,56.9551654 21.1516009,55.622619 C22.3266957,54.2900727 23.0243977,52.053984 23.244728,48.9142857 C21.078147,51.9444596 17.7732424,53.4595238 13.3299151,53.4595238 C10.9062821,53.4595238 8.67547148,52.8388951 6.63741642,51.597619 C4.59936135,50.356343 2.98363022,48.6769947 1.79017455,46.5595238 C0.596718883,44.4420529 0,42.1238221 0,39.6047619 C0,37.0491936 0.587538593,34.7035821 1.7626334,32.5678571 C2.93772822,30.4321322 4.54427906,28.743657 6.58233412,27.502381 C8.62038919,26.2611049 10.8511998,25.6404762 13.2748328,25.6404762 C15.5148573,25.6404762 17.4702592,26.2154704 19.1410971,27.3654762 C20.8119351,28.5154819 21.9043896,30.0579268 22.4184936,31.9928571 L22.4184936,25.6404762 L34.0408576,25.6404762 L34.0408576,46.5047619 C34.0408576,52.8936827 32.5811914,57.7400628 29.6618153,61.0440476 C26.7424391,64.3480324 22.4919646,66 16.9102642,66 Z M16.9102642,45.2452381 C18.3791327,45.2452381 19.6460128,44.7250052 20.7109425,43.6845238 C21.7758722,42.6440424 22.3450502,41.4119119 22.4184936,39.9880952 L22.4184936,39.55 C22.3450502,38.1626915 21.7666919,36.9396878 20.6834014,35.8809524 C19.6001108,34.8222169 18.342411,34.2928571 16.9102642,34.2928571 C15.404674,34.2928571 14.1194333,34.8313438 13.0545037,35.9083333 C11.989574,36.9853228 11.4571171,38.2722147 11.4571171,39.7690476 C11.4571171,41.2658805 11.989574,42.5527724 13.0545037,43.6297619 C14.1194333,44.7067514 15.404674,45.2452381 16.9102642,45.2452381 Z M51.3822007,53.897619 C48.4811854,53.897619 45.9015238,53.386513 43.6431384,52.3642857 C41.3847531,51.3420584 39.6313176,49.9000093 38.3827793,48.0380952 C37.1342411,46.1761812 36.5099814,44.058742 36.5099814,41.6857143 L36.5099814,26.0238095 L47.8569339,26.0238095 L47.8569339,41.5214286 C47.8569339,42.7261965 48.1966046,43.6662665 48.8759563,44.3416667 C49.555308,45.0170669 50.409075,45.3547619 51.437283,45.3547619 C52.4287693,45.3547619 53.2458151,45.0170669 53.8884451,44.3416667 C54.5310751,43.6662665 54.8523852,42.7261965 54.8523852,41.5214286 L54.8523852,26.0238095 L65.9790086,26.0238095 L65.9790086,41.6857143 C65.9790086,44.0952501 65.3639291,46.2218162 64.1337517,48.0654762 C62.9035744,49.9091362 61.18686,51.3420584 58.9835573,52.3642857 C56.7802545,53.386513 54.2464943,53.897619 51.3822007,53.897619 Z M78.142616,53.897619 C75.0579922,53.897619 72.652756,52.9119146 70.9268355,50.9404762 C69.200915,48.9690378 68.3379677,46.2857313 68.3379677,42.8904762 L68.3379677,26.0238095 L80.015414,26.0238095 L80.015414,42.397619 C80.015414,43.2373058 80.2449213,43.8853152 80.7039427,44.3416667 C81.1629641,44.7980182 81.759683,45.0261905 82.4941173,45.0261905 C83.2285515,45.0261905 83.9813353,44.807145 84.7524913,44.3690476 C85.0136542,45.6948124 85.4329985,46.8677364 86.0105244,47.8878198 C86.5880502,48.9079032 87.3231967,49.9254553 88.2159638,50.9404762 C87.4080861,51.5611142 83.4947855,53.0761888 82.1911646,53.4047619 C80.8875438,53.733335 79.5380411,53.897619 78.142616,53.897619 Z M74.1766909,21.9166667 C72.4507704,21.9166667 70.9911042,21.37818 69.7976485,20.3011905 C68.6041929,19.224201 68.007474,17.9008015 68.007474,16.3309524 C68.007474,14.7611033 68.6317337,13.4468307 69.880272,12.3880952 C71.1288102,11.3293598 72.5609355,10.8 74.1766909,10.8 C75.8658897,10.8 77.3255559,11.3476136 78.5557332,12.4428571 C79.7859106,13.5381007 80.4009901,14.8341195 80.4009901,16.3309524 C80.4009901,17.9373096 79.7767303,19.269836 78.5281921,20.3285714 C77.2796539,21.3873069 75.829168,21.9166667 74.1766909,21.9166667 Z M98.9397743,53.897619 C96.4426979,53.897619 94.1751661,53.2404828 92.137111,51.9261905 C90.099056,50.6118982 88.4925051,48.8686617 87.3174103,46.6964286 C86.1423155,44.5241955 85.5547769,42.2150916 85.5547769,39.7690476 C85.5547769,37.1769712 86.1698564,34.7948521 87.4000338,32.622619 C88.6302112,30.450386 90.2826634,28.743657 92.3574402,27.502381 C94.432217,26.2611049 96.644667,25.6404762 98.9948566,25.6404762 C101.124716,25.6404762 102.933233,26.078567 104.420463,26.9547619 C105.907692,27.8309568 107.11031,29.2364983 108.028353,31.1714286 L108.028353,17.3714286 L119.650717,15.6738095 L119.650717,53.4595238 L108.028353,53.4595238 L108.028353,48.3666667 C106.302432,52.0539867 103.272936,53.897619 98.9397743,53.897619 Z M102.575206,45.2452381 C104.117518,45.2452381 105.411939,44.6976245 106.458507,43.602381 C107.505076,42.5071374 108.028353,41.2293724 108.028353,39.7690476 L108.028353,39.55 C108.028353,38.1261834 107.477535,36.8940528 106.375884,35.8535714 C105.274233,34.81309 104.007353,34.2928571 102.575206,34.2928571 C101.032894,34.2928571 99.7384728,34.8313438 98.691904,35.9083333 C97.6453352,36.9853228 97.1220586,38.2722147 97.1220586,39.7690476 C97.1220586,41.3023886 97.6636958,42.5984074 98.7469863,43.6571429 C99.8302768,44.7158783 101.106337,45.2452381 102.575206,45.2452381 Z M136.661566,53.897619 C133.613664,53.897619 130.905478,53.2861172 128.536928,52.0630952 C126.168377,50.8400733 124.323139,49.160725 123.001157,47.025 C121.679176,44.889275 121.018195,42.4706484 121.018195,39.7690476 C121.018195,36.9944306 121.697536,34.5301695 123.05624,32.3761905 C124.414943,30.2222115 126.251001,28.561117 128.564469,27.3928571 C130.877937,26.2245973 133.448418,25.6404762 136.27599,25.6404762 C138.993397,25.6404762 141.31601,26.2337242 143.2439,27.4202381 C145.17179,28.606752 146.613096,30.2130851 147.56786,32.2392857 C148.522625,34.2654863 149,36.5380826 149,39.0571429 C149,39.714289 148.963279,40.1888874 148.889835,40.4809524 L132.365147,42.6166667 C132.805808,43.8944508 133.52187,44.816267 134.513357,45.3821429 C135.504843,45.9480187 136.808444,46.2309524 138.4242,46.2309524 C140.921276,46.2309524 143.620281,45.5920699 146.521297,44.3142857 L147.898354,51.652381 C144.483235,53.1492138 140.737676,53.897619 136.661566,53.897619 Z M140.462244,35.7166667 C139.874697,33.4166552 138.479293,32.2666667 136.27599,32.2666667 C134.954008,32.2666667 133.907455,32.7595189 133.136299,33.7452381 C132.365143,34.7309573 131.961211,36.0087223 131.924489,37.5785714 L140.462244,35.7166667 Z" id="guide" fill="#FFFFFF"></path>
                    <g id="360-degrees" transform="translate(63.685484, 0.000000)">
                        <mask id="mask-2" fill="white">
                            <use xlink:href="#path-1"></use>
                        </mask>
                        <use id="Mask" fill="#DA0000" xlink:href="#path-1"></use>
                        <path d="M2.9047282,10.6053277 L2.9047282,12.0481401 C3.16046662,12.0481401 3.42849613,12.0553541 3.70882478,12.0697823 C3.98915344,12.0842105 4.24734701,12.1371131 4.48341324,12.2284917 C4.71947947,12.3198702 4.9137394,12.4665547 5.06619884,12.6685495 C5.21865828,12.8705442 5.29488686,13.1639132 5.29488686,13.5486651 C5.29488686,14.0392238 5.13259376,14.4263746 4.80800269,14.7101291 C4.48341162,14.9938836 4.08505582,15.1357588 3.61292336,15.1357588 C3.30800447,15.1357588 3.04489293,15.0828562 2.82358084,14.9770494 C2.60226874,14.8712426 2.41784477,14.7293675 2.27030337,14.5514197 C2.12276197,14.373472 2.0096486,14.1618616 1.93095986,13.9165822 C1.85227111,13.6713029 1.80800936,13.4140039 1.79817326,13.1446776 L-0.193625617,13.1446776 C-0.20346171,13.7314242 -0.117397187,14.2508315 0.064570534,14.702915 C0.246538255,15.1549985 0.504731825,15.53734 0.839158988,15.8499509 C1.17358615,16.1625619 1.5793189,16.4006235 2.05636942,16.5641431 C2.53341993,16.7276627 3.062102,16.8094212 3.64243149,16.8094212 C4.14407223,16.8094212 4.62603356,16.7372813 5.08832994,16.5929993 C5.55062631,16.4487174 5.95881805,16.237107 6.3129174,15.9581619 C6.66701675,15.6792167 6.94980018,15.3329452 7.16127618,14.9193369 C7.37275218,14.5057286 7.47848859,14.0344146 7.47848859,13.5053807 C7.47848859,12.9282528 7.31619549,12.4328922 6.99160442,12.0192839 C6.66701335,11.6056756 6.21947783,11.3363533 5.64898444,11.2113089 L5.64898444,11.1824526 C6.130953,11.0477895 6.49242399,10.7928951 6.73340827,10.417762 C6.97439255,10.0426289 7.09488288,9.60978951 7.09488288,9.11923083 C7.09488288,8.66714733 6.99160546,8.26797321 6.7850475,7.92169649 C6.57848955,7.57541977 6.31046003,7.28205083 5.98095092,7.04158089 C5.6514418,6.80111094 5.28013486,6.62076119 4.86701895,6.50052622 C4.45390304,6.38029124 4.04079333,6.32017466 3.62767742,6.32017466 C3.0965284,6.32017466 2.61456707,6.40433788 2.18177898,6.57266684 C1.74899088,6.7409958 1.37768394,6.97905748 1.06784701,7.28685901 C0.758010077,7.59466054 0.517029412,7.96257403 0.344897784,8.39061053 C0.172766156,8.81864704 0.0768656872,9.29236572 0.0571935011,9.8117808 L2.04899238,9.8117808 C2.03915629,9.29236572 2.16948257,8.86193098 2.43997513,8.52046366 C2.71046769,8.17899633 3.11128246,8.00826523 3.64243149,8.00826523 C4.02603912,8.00826523 4.36537924,8.12368908 4.66046203,8.35454022 C4.95554482,8.58539137 5.103084,8.91723492 5.103084,9.35008082 C5.103084,9.63864475 5.0317734,9.86949244 4.88915005,10.0426308 C4.7465267,10.2157692 4.56456171,10.3480256 4.34324961,10.4394042 C4.12193752,10.5307828 3.88341584,10.5860901 3.62767742,10.6053277 C3.371939,10.6245653 3.13095834,10.6245653 2.9047282,10.6053277 L2.9047282,10.6053277 Z M11.9637246,11.3844464 C12.2292991,11.3844464 12.4629028,11.4397536 12.6645427,11.5503698 C12.8661826,11.660986 13.0309347,11.8052658 13.1588039,11.9832136 C13.2866731,12.1611613 13.3825736,12.363153 13.4465082,12.5891948 C13.5104428,12.8152365 13.5424096,13.0484889 13.5424096,13.2889588 C13.5424096,13.51981 13.5079838,13.7458483 13.4391312,13.9670807 C13.3702785,14.188313 13.2670011,14.3854954 13.1292958,14.5586338 C12.9915905,14.7317721 12.8268384,14.8712426 12.6350346,14.9770494 C12.4432308,15.0828562 12.219463,15.1357588 11.9637246,15.1357588 C11.6981501,15.1357588 11.4620874,15.0828562 11.2555294,14.9770494 C11.0489715,14.8712426 10.8743835,14.7293675 10.7317601,14.5514197 C10.5891368,14.373472 10.4809414,14.1714802 10.4071707,13.9454385 C10.3334,13.7193967 10.2965152,13.4909537 10.2965152,13.2601026 C10.2965152,13.0100138 10.330941,12.7719522 10.3997936,12.5459104 C10.4686463,12.3198687 10.5719237,12.1202816 10.709629,11.9471432 C10.8473343,11.7740049 11.0219223,11.6369391 11.2333983,11.5359417 C11.4448743,11.4349443 11.688314,11.3844464 11.9637246,11.3844464 L11.9637246,11.3844464 Z M13.4686393,9.11923083 L15.4604382,9.11923083 C15.4014216,8.66714733 15.2784723,8.26797321 15.0915865,7.92169649 C14.9047008,7.57541977 14.6637201,7.2844555 14.3686373,7.04879495 C14.0735545,6.8131344 13.7342144,6.63278465 13.3506068,6.50774028 C12.9669992,6.38269591 12.5538894,6.32017466 12.1112653,6.32017466 C11.3735583,6.32017466 10.7489757,6.47888244 10.2374989,6.79630277 C9.72602206,7.1137231 9.30799438,7.52492054 8.9834033,8.02990742 C8.65881223,8.53489431 8.42274954,9.0999902 8.27520815,9.72521206 C8.12766675,10.3504339 8.05389716,10.9756464 8.05389716,11.6008682 C8.05389716,12.2453277 8.11291283,12.8777542 8.23094595,13.4981666 C8.34897907,14.1185791 8.56045189,14.6740563 8.86537078,15.164615 C9.17028966,15.6551737 9.5784814,16.0519432 10.0899582,16.3549353 C10.6014351,16.6579274 11.2456895,16.8094212 12.0227409,16.8094212 C12.563726,16.8094212 13.0555233,16.7156393 13.4981474,16.5280728 C13.9407716,16.3405062 14.3219145,16.0808026 14.6415875,15.7489541 C14.9612606,15.4171055 15.2071592,15.0275501 15.3792908,14.580276 C15.5514225,14.1330019 15.637487,13.6496645 15.637487,13.1302495 C15.637487,12.7262599 15.5735533,12.3270858 15.4456841,11.9327151 C15.3178149,11.5383444 15.116178,11.1872636 14.8407674,10.879462 C14.5456846,10.5620417 14.1866726,10.309552 13.7637206,10.1219855 C13.3407686,9.93441893 12.907987,9.84063705 12.4653628,9.84063705 C11.9637221,9.84063705 11.5211045,9.92720493 11.1374969,10.1003433 C10.7538893,10.2734817 10.4194671,10.5620413 10.1342204,10.9660308 L10.1047123,10.9371745 C10.1145484,10.6582294 10.1538922,10.3408138 10.2227448,9.9849183 C10.2915975,9.62902278 10.3997929,9.29477457 10.5473343,8.98216364 C10.6948757,8.66955271 10.8940536,8.40503974 11.1448739,8.18861679 C11.3956943,7.97219384 11.7079856,7.86398399 12.0817571,7.86398399 C12.4456926,7.86398399 12.7506069,7.98902648 12.9965092,8.23911523 C13.2424115,8.48920397 13.3997867,8.7825729 13.4686393,9.11923083 L13.4686393,9.11923083 Z M18.3522351,11.5287276 C18.3522351,11.3555893 18.3546941,11.1463836 18.3596121,10.9011042 C18.3645302,10.6558249 18.3817431,10.4033352 18.4112513,10.1436277 C18.4407596,9.88392013 18.4899394,9.62662115 18.558792,9.37172301 C18.6276447,9.11682486 18.7235451,8.88838184 18.8464963,8.68638709 C18.9694474,8.48439233 19.1268226,8.32087522 19.3186264,8.19583085 C19.5104302,8.07078648 19.7489519,8.00826523 20.0341986,8.00826523 C20.3194453,8.00826523 20.5604259,8.07078648 20.7571478,8.19583085 C20.9538697,8.32087522 21.1161628,8.48439233 21.244032,8.68638709 C21.3719012,8.88838184 21.4678017,9.11682486 21.5317363,9.37172301 C21.5956709,9.62662115 21.6448506,9.88392013 21.6792769,10.1436277 C21.7137032,10.4033352 21.7333751,10.6558249 21.7382932,10.9011042 C21.7432112,11.1463836 21.7456702,11.3555893 21.7456702,11.5287276 C21.7456702,11.8172916 21.7358343,12.1659678 21.7161621,12.5747667 C21.6964899,12.9835656 21.6350152,13.3779304 21.5317363,13.7578729 C21.4284573,14.1378154 21.2612462,14.4624449 21.030098,14.7317713 C20.7989498,15.0010976 20.4669867,15.1357588 20.0341986,15.1357588 C19.6112466,15.1357588 19.2866604,15.0010976 19.0604302,14.7317713 C18.8342001,14.4624449 18.669448,14.1378154 18.566169,13.7578729 C18.4628901,13.3779304 18.4014154,12.9835656 18.3817432,12.5747667 C18.362071,12.1659678 18.3522351,11.8172916 18.3522351,11.5287276 L18.3522351,11.5287276 Z M16.2571577,11.5287276 C16.2571577,12.5387014 16.3579762,13.3827382 16.5596161,14.0608635 C16.761256,14.7389887 17.0342035,15.280038 17.3784667,15.6840275 C17.72273,16.088017 18.1235448,16.3765766 18.5809231,16.549715 C19.0383014,16.7228533 19.5227217,16.8094212 20.0341986,16.8094212 C20.5555115,16.8094212 21.0448498,16.7228533 21.5022281,16.549715 C21.9596065,16.3765766 22.3628802,16.088017 22.7120615,15.6840275 C23.0612428,15.280038 23.3366493,14.7389887 23.5382892,14.0608635 C23.7399291,13.3827382 23.8407476,12.5387014 23.8407476,11.5287276 C23.8407476,10.5476103 23.7399291,9.72281071 23.5382892,9.05430426 C23.3366493,8.38579782 23.0612428,7.84955788 22.7120615,7.44556838 C22.3628802,7.04157887 21.9596065,6.75301926 21.5022281,6.5798809 C21.0448498,6.40674254 20.5555115,6.32017466 20.0341986,6.32017466 C19.5227217,6.32017466 19.0383014,6.40674254 18.5809231,6.5798809 C18.1235448,6.75301926 17.72273,7.04157887 17.3784667,7.44556838 C17.0342035,7.84955788 16.761256,8.38579782 16.5596161,9.05430426 C16.3579762,9.72281071 16.2571577,10.5476103 16.2571577,11.5287276 L16.2571577,11.5287276 Z" id="360" fill="#FFFFFF" mask="url(#mask-2)"></path>
                        <ellipse id="Oval-8" fill="#DA0000" cx="24.7749528" cy="5.47075605" rx="1.0275326" ry="1.00483274"></ellipse>
                    </g>
                </g>
            </g>
        </g>
    </g>
</svg>