<?xml version="1.0" ?><!DOCTYPE svg  PUBLIC '-//W3C//DTD SVG 1.1//EN'  'http://www.w3.org/Graphics/SVG/1.1/DTD/svg11.dtd'><svg enable-background="new 0 0 512 512" id="Layer_1" version="1.1" viewBox="0 0 512 512" xml:space="preserve" xmlns="http://www.w3.org/2000/svg" xmlns:xlink="http://www.w3.org/1999/xlink"><g><path d="M257.1,6.2C395,6.2,506,118.6,505.5,258.7c-0.5,137.8-111.9,250.5-251.3,249.1   C117.6,506.3,7.2,394,8.5,254.5C9.7,117.5,119.7,6.5,257.1,6.2z M257.5,25.8C133.1,25.3,29.6,126.4,28.1,254   c-1.6,130.3,102.4,232.9,226.5,234.2c126,1.3,230.7-100.8,231.3-229.2C486.5,129.6,384.3,25.8,257.5,25.8z" fill="#067CD4"/><path d="M98.4,232c-0.1-4.5-0.3-9-0.3-13.5c0-38.3,0.1-76.7-0.1-115c0-4.4,1.1-5.5,5.5-5.5   c102.3,0.1,204.6,0.1,307,0c4.4,0,5.5,1.1,5.5,5.5c-0.2,46-0.1,92-0.1,138c0,1.5-0.1,3-0.2,4.5c-7.5,0-15.1,0-22.6,0   c-1.1-5-2-10-3.3-14.9c-1.3-4.5-2.2-9.4-6.7-12.2c-0.4-0.8-1-1.1-1.9-1l-0.1,0c-2.6-2.3-6-2.6-9.2-2.8   c-23.3-1.5-45.1,3.2-64.7,16.5c-1.7-1.7-5.2-0.3-6.1-3.4c15.5-7.4,28.1-18.2,37.7-32.4c5.4-8,10.1-16.4,10.3-26.5   c5.1-0.3,8.2-3.3,10.4-7.5c5.2-10.1,1.9-26-6.7-33.6c-6.3-5.6-14.4-5.7-20.9-0.3c-5.5,4.6-7.9,10.9-9,17.8c-1.1,7-1,14,3.9,19.3   c3,3.3,2.6,5.2,0.8,8.3c-15.9,28.1-51.5,43.9-83.4,37c-24-5.2-42.6-18.1-55.6-38.9c-1-1.6-2.8-3.2-0.6-5.2   c8.8-7.7,6.6-25.8-0.2-34.6c-7.5-9.6-19.4-10.3-27.5-1.3c-6.7,7.5-8.2,16.6-6.9,26.2c1.2,8.6,4.7,11.8,13.5,13.6   c3.7,18.6,14.5,32.4,28.7,44.3c7.5,6.3,16.1,10.7,24.4,15.5c-2.4,2.2-5.4,2.1-8.4,2.1C173.9,232,136.1,232,98.4,232z" fill="#FDE342"/><path d="M98.4,232c37.7,0,75.5,0,113.2,0c3,0,6,0.1,8.4-2.1c1.6,0.4,3.3,0.6,4.8,1.2c25.8,9.3,51.2,8.2,76.2-2.9   c1,3.1,4.4,1.7,6.1,3.4c-7.4,4.3-12.7,10.7-18,17.2c-14.8,18.2-19.9,40.1-23.8,62.3c-1.7,9.7-1.1,9.9-10.8,9.8   c-27.6-0.3-55.2-0.4-82.5,4.3c-5,0.5-9.9,0.9-16.1,1.5c1.6,0.8,2,1.1,2.4,1.2c14.1,2.1,28.2,4.5,42.4,6.1c4.7,0.6,5.5,3.6,5.6,6.7   c0.1,3.5-3.5,1.5-5.3,2.1c-1.7,0.6-3.7,0.1-5.4,0.5c-5.3,0.9-10.9,0.2-17,2.1c1.7,0.3,2.5,0.4,3.2,0.6c8.1,1.2,16.1,2.4,24.2,3.4   c3.5,0.4,3.3,3.1,3.4,5.1c0.1,2.7-2.3,1.4-3.6,1.5c-25.1,1.4-50.2,2.8-75.3,4.1c-1.6,0.1-2.8,0.6-4.1,1.9c15.2,0.6,30.1,1.1,45,1.7   c27.8,1.1,55.6,2.2,83.4,1.5c0.9,2.1,0.1,4.2-0.2,6.3c-2.5,14.8-5.1,29.7-7.6,44.5c-48.1,0-96.2,0-144.3,0.1   c-3.2,0-4.7-0.5-4.7-4.3c0.1-59.3,0.1-118.5,0.1-177.8C98.2,233.3,98.3,232.7,98.4,232z" fill="#FCDC35"/><path d="M254.9,365.1c-27.8,0.7-55.6-0.4-83.4-1.5c-14.9-0.6-29.9-1.1-45-1.7c1.3-1.3,2.5-1.8,4.1-1.9   c25.1-1.3,50.2-2.6,75.3-4.1c1.3-0.1,3.7,1.2,3.6-1.5c-0.1-2.1,0.1-4.7-3.4-5.1c-8.1-1-16.1-2.2-24.2-3.4c-0.8-0.1-1.5-0.3-3.2-0.6   c6.1-2,11.7-1.2,17-2.1c1.8-0.3,3.8,0.1,5.4-0.5c1.8-0.6,5.4,1.4,5.3-2.1c-0.1-3.1-0.9-6.1-5.6-6.7c-14.2-1.7-28.3-4-42.4-6.1   c-0.4-0.1-0.8-0.4-2.4-1.2c6.2-0.6,11.1-1,16.1-1.5c0.8,0.3,1.5,0.8,2.3,0.8c30.1,0.1,60.3,0.1,90.4,0.1c3.1,0,3.9-1.7,4.3-4.3   c0.6-4.4,1.3-8.8,2-13.2c3-18,6.5-36,16.6-51.7c11.3-17.7,26.6-30.2,47.1-36c15.3-4.3,30.7-4.7,46.3-3c0,0,0.1,0,0.1,0   c0.3,1,1,1.1,1.9,1c4.5,2.8,5.5,7.6,6.7,12.2c1.4,4.9,2.2,9.9,3.3,14.9c-0.2,8.8-3.3,12.1-12.2,13.2c-5.1,0.6-10.3,0.5-15.4,0.7   c-13.1,0.4-23.2,6.2-29.8,17.7c-7.7,13.4-8.3,28.6-10.7,43.4c-2.1,3.4-1.6,5.2,2.8,5.2c10.6-0.1,21.3,0,31.9,0   c3.6,10.5,0.8,20.3-3.5,29.8c-2.8,6.3-7.9,9.5-15.1,9.4c-7-0.2-14,0-20.9-0.1c-2.1,0-3.8,0-4.3,2.8c-2.5,15.7-5.2,31.4-7.9,47   c-0.2,0.2-0.2,0.5-0.2,0.8c-18.6,0-37.3,0-55.9,0c1.4-15.3,5-30.2,7.5-45.3C260.3,365.9,259.5,364.3,254.9,365.1z" fill="#0170FC"/><path d="M325,320.9c2.4-14.7,3-29.9,10.7-43.4c6.6-11.5,16.6-17.2,29.8-17.7c5.1-0.2,10.3-0.1,15.4-0.7   c8.8-1.1,11.9-4.3,12.2-13.2c7.5,0,15.1,0,22.6,0c0.1,5.5,0.2,11,0.2,16.5c0,49.4,0,98.9,0.1,148.3c0,4.1-1,5.3-5.2,5.3   c-34-0.2-67.9-0.2-101.9-0.3c-0.3-0.3-0.6-0.5-0.8-0.8c2.6-15.7,5.3-31.3,7.9-47c0.5-2.8,2.2-2.8,4.3-2.8c7,0.1,14-0.1,20.9,0.1   c7.2,0.2,12.2-3.1,15.1-9.4c4.2-9.5,7-19.3,3.5-29.8c-1.7-4.2-5.2-5.2-9.3-5.2C342,320.9,333.5,320.9,325,320.9z" fill="#FCDC35"/><path d="M254.9,365.1c4.7-0.8,5.4,0.8,4.6,5.5c-2.5,15.1-6.1,30-7.5,45.3c-1.7,0-3.3,0.1-5,0.1   c2.5-14.8,5.1-29.7,7.6-44.5C255,369.3,255.7,367.2,254.9,365.1z" fill="#067CD4"/><path d="M308.1,415c0.3,0.3,0.6,0.5,0.8,0.8c-0.4,0-0.7,0-1.1,0C307.9,415.5,308,415.3,308.1,415z" fill="#FDE342"/><path d="M166.9,170.1c-8.8-1.8-12.3-5.1-13.5-13.6c-1.4-9.6,0.1-18.7,6.9-26.2c8.1-9,20.1-8.3,27.5,1.3   c6.8,8.8,9,26.9,0.2,34.6c-2.3,2-0.4,3.6,0.6,5.2c13,20.8,31.6,33.7,55.6,38.9c31.9,6.9,67.4-8.9,83.4-37c1.8-3.2,2.3-5.1-0.8-8.3   c-4.9-5.3-5-12.3-3.9-19.3c1.1-7,3.5-13.2,9-17.8c6.5-5.5,14.6-5.3,20.9,0.3c8.6,7.6,11.8,23.4,6.7,33.6c-2.1,4.2-5.3,7.2-10.4,7.5   c-2.9-0.8-2.8,1.8-3.5,3.2c-17.4,34.6-45.9,52.3-84.1,53.5c-31.9,1-58.1-12.1-78.9-36c-8.5-9.8-14.9-20.8-15.6-34.3   c-0.3-5.1,2.8-8.4,7.5-8.6c4.7-0.2,7.9,2.8,8.3,8c0.3,3.2,0.8,6.3,2.5,9.2c2.1-1,2.9-2.4,3.7-3.9c4.7-9,1.3-24.3-6.8-30.5   c-6-4.6-13.4-4.1-19,1.3c-6.8,6.6-9.6,20.5-6,29.4c1.4,3.3,3.9,5.4,7.2,6.3C166.2,167.3,167.7,167.8,166.9,170.1z M347.7,168   c4.6-2.2,8.2-4.3,9.9-8.7c3.5-8.8,0.7-22.3-6.2-28.7c-5.3-4.9-12.2-5.2-17.7-0.8c-7.8,6.3-11.3,22.4-6.7,31.2   c0.8,1.6,1.8,3.8,3.6,3.8c2.2-0.1,1.8-2.7,2.3-4.3c0.5-1.7,0.7-3.6,0.9-5.4c0.6-5.4,3.9-8.5,8.7-8c4.9,0.5,7.7,4.1,7.1,9.5   C349.2,160.2,348.4,163.8,347.7,168z" fill="#FDFEFE"/><path d="M166.9,170.1c0.8-2.3-0.7-2.8-2.5-3.3c-3.4-0.9-5.9-3-7.2-6.3c-3.6-8.9-0.8-22.8,6-29.4   c5.6-5.4,13-5.9,19-1.3c8.1,6.2,11.5,21.5,6.8,30.5c-0.8,1.5-1.6,2.9-3.7,3.9c-1.7-2.8-2.3-5.9-2.5-9.2c-0.4-5.2-3.6-8.2-8.3-8   c-4.7,0.2-7.8,3.5-7.5,8.6c0.7,13.4,7.1,24.5,15.6,34.3c20.8,23.9,46.9,37.1,78.9,36c38.3-1.3,66.7-18.9,84.1-53.5   c0.7-1.4,0.6-4,3.5-3.2c-0.2,10.1-4.9,18.5-10.3,26.5c-9.6,14.2-22.2,25-37.7,32.4c-25,11.1-50.4,12.2-76.2,2.9   c-1.5-0.6-3.2-0.8-4.8-1.2c-8.3-4.8-16.9-9.2-24.4-15.5C181.4,202.5,170.6,188.7,166.9,170.1z" fill="#9A8927"/><path d="M381,217.8c-15.6-1.7-31-1.4-46.3,3c-20.6,5.8-35.8,18.3-47.1,36c-10.1,15.7-13.6,33.7-16.6,51.7   c-0.7,4.4-1.4,8.8-2,13.2c-0.4,2.6-1.2,4.3-4.3,4.3c-30.1-0.1-60.3-0.1-90.4-0.1c-0.8,0-1.5-0.5-2.3-0.8   c27.3-4.7,54.9-4.6,82.5-4.3c9.7,0.1,9.1-0.1,10.8-9.8c3.9-22.2,9-44.2,23.8-62.3c5.3-6.5,10.6-12.9,18-17.2   c19.6-13.3,41.3-18,64.7-16.5C375.1,215.2,378.4,215.5,381,217.8z" fill="#067CD4"/><path d="M383,218.9c-0.9,0.1-1.6-0.1-1.9-1C382,217.8,382.7,218.1,383,218.9z" fill="#067CD4"/><path d="M325,320.9c8.5,0,17,0,25.4,0c4.1,0,7.5,1,9.3,5.2c-10.6,0-21.3,0-31.9,0   C323.5,326.1,322.9,324.3,325,320.9z" fill="#067CD4"/><path d="M347.7,168c0.8-4.2,1.6-7.8,2-11.4c0.7-5.4-2.1-9-7.1-9.5c-4.8-0.5-8.1,2.6-8.7,8c-0.2,1.8-0.4,3.7-0.9,5.4   c-0.5,1.6-0.2,4.2-2.3,4.3c-1.8,0-2.8-2.2-3.6-3.8c-4.6-8.8-1.1-24.9,6.7-31.2c5.5-4.4,12.4-4.1,17.7,0.8   c6.9,6.4,9.7,19.9,6.2,28.7C355.8,163.7,352.3,165.8,347.7,168z" fill="#9A8927"/></g></svg>